<svg xmlns="http://www.w3.org/2000/svg" viewBox="0 0 292.23 48.07"><defs><style>.cls-1{fill:#fff;}.cls-2{fill:none;}</style></defs><title>tripadvisor</title><g id="Capa_2" data-name="Capa 2"><g id="Layer_1" data-name="Layer 1"><path class="cls-1" d="M17.06,27.21a3.32,3.32,0,1,0,3.31-3.31A3.32,3.32,0,0,0,17.06,27.21Z"/><path class="cls-1" d="M57,27.21A3.32,3.32,0,1,0,60.3,23.9,3.32,3.32,0,0,0,57,27.21Z"/><path class="cls-1" d="M13.45,20.29a9.79,9.79,0,1,0,6.92-2.86A9.73,9.73,0,0,0,13.45,20.29ZM15.57,32a6.79,6.79,0,1,1,4.8,2A6.74,6.74,0,0,1,15.57,32Z"/><path class="cls-1" d="M53.37,20.29a9.79,9.79,0,1,0,6.93-2.86A9.72,9.72,0,0,0,53.37,20.29ZM55.5,32a6.78,6.78,0,0,1,4.8-11.58A6.79,6.79,0,0,1,60.3,34,6.7,6.7,0,0,1,55.5,32Z"/><path class="cls-2" d="M60.29,10.84A16.38,16.38,0,1,0,76.67,27.21,16.4,16.4,0,0,0,60.29,10.84Z"/><path class="cls-2" d="M20.37,10.84A16.38,16.38,0,1,0,36.75,27.21,16.39,16.39,0,0,0,20.37,10.84Z"/><path class="cls-1" d="M76.07,14.34a17.65,17.65,0,0,1,3.57-6.6H66.26c-.22-.07-.46-.12-.68-.18C64.85,6.42,59.88,0,40,0c-21.83,0-25.7,7.74-25.7,7.74H.34c1.78,1.78,3,4.84,3.78,7.25A20.17,20.17,0,0,0,0,27.21,20.35,20.35,0,0,0,35.92,40.35l4.62,6.48,4-6.73A20.36,20.36,0,1,0,76.07,14.34ZM20.37,43.59A16.38,16.38,0,1,1,36.75,27.21,16.39,16.39,0,0,1,20.37,43.59Zm.28-35.44s5.25-5.8,19.2-5.8h1.38c14,0,19.2,5.8,19.2,5.8S45.51,5.66,40.54,24C35.57,5.66,20.65,8.15,20.65,8.15ZM60.29,43.59A16.38,16.38,0,1,1,76.67,27.21,16.4,16.4,0,0,1,60.29,43.59Z"/><path class="cls-1" d="M95.73,12.16v5.22h5.67v3H95.73V32.14c0,2.7.77,4.23,3,4.23a7.45,7.45,0,0,0,2.3-.27l.18,3a10.82,10.82,0,0,1-3.51.54A5.64,5.64,0,0,1,93.39,38c-1.08-1.21-1.53-3.15-1.53-5.71V20.4H88.49v-3h3.37v-4Z"/><path class="cls-1" d="M105,24.18c0-2.57,0-4.77-.18-6.8h3.46l.18,4.28h.14a6.58,6.58,0,0,1,6.07-4.77,4.15,4.15,0,0,1,1.08.13v3.69c-.45,0-.85-.09-1.39-.09-2.79,0-4.77,2.12-5.31,5a12.52,12.52,0,0,0-.14,1.89V39.16h-4Z"/><path class="cls-1" d="M120.75,13.38a2.46,2.46,0,0,1-2.47-2.57,2.47,2.47,0,0,1,2.56-2.52,2.44,2.44,0,0,1,2.52,2.52,2.48,2.48,0,0,1-2.56,2.57Zm-1.89,25.78V17.38h4V39.16Z"/><path class="cls-1" d="M128.45,24.49c0-2.79,0-5-.18-7.11h3.55l.23,3.74h.09a8.39,8.39,0,0,1,7.69-4.23c5.31,0,9.27,4.45,9.27,11.07,0,7.83-4.81,11.7-9.9,11.7a7.58,7.58,0,0,1-6.7-3.42h-.09V48.07h-4Zm4,5.81a6.19,6.19,0,0,0,.18,1.62,6.05,6.05,0,0,0,5.89,4.63c4.19,0,6.62-3.42,6.62-8.41,0-4.37-2.25-8.1-6.44-8.1a6.33,6.33,0,0,0-6,4.86,10.64,10.64,0,0,0-.22,1.62Z"/><path class="cls-1" d="M168.45,33.94a35.73,35.73,0,0,0,.32,5.22h-3.56l-.36-2.74h-.13a8.05,8.05,0,0,1-6.66,3.24c-4.41,0-6.66-3.11-6.66-6.26,0-5.26,4.68-8.14,13.09-8.1v-.45c0-1.8-.49-5.08-5-5a10.52,10.52,0,0,0-5.71,1.62l-.9-2.65a14,14,0,0,1,7.2-1.89c6.7,0,8.32,4.54,8.32,8.91Zm-3.87-5.89c-4.32-.09-9.22.67-9.22,4.9a3.47,3.47,0,0,0,3.69,3.78,5.49,5.49,0,0,0,5.35-3.64,4,4,0,0,0,.18-1.26Z"/><path class="cls-1" d="M192.66,7.21V33.54c0,1.93.05,4.14.18,5.62h-3.55l-.18-3.78H189a8,8,0,0,1-7.38,4.28c-5.27,0-9.36-4.46-9.36-11.07-.05-7.29,4.5-11.7,9.76-11.7,3.38,0,5.63,1.57,6.57,3.28h.09v-13Zm-4,19a7.1,7.1,0,0,0-.18-1.71A5.82,5.82,0,0,0,182.81,20c-4.1,0-6.53,3.6-6.53,8.37,0,4.46,2.21,8.1,6.44,8.1a6,6,0,0,0,5.8-4.72A6.65,6.65,0,0,0,188.7,30Z"/><path class="cls-1" d="M199.77,17.38l4.28,12.2c.72,2,1.3,3.82,1.75,5.62h.14c.49-1.8,1.12-3.6,1.84-5.62L212,17.38h4.14L207.6,39.16h-3.78l-8.28-21.78Z"/><path class="cls-1" d="M220.83,13.38a2.46,2.46,0,0,1-2.47-2.57,2.47,2.47,0,0,1,2.56-2.52,2.44,2.44,0,0,1,2.52,2.52,2.48,2.48,0,0,1-2.56,2.57Zm-1.89,25.78V17.38h4V39.16Z"/><path class="cls-1" d="M228,35.16a11.15,11.15,0,0,0,5.26,1.53c2.84,0,4.19-1.4,4.19-3.24s-1.13-2.93-4-4c-4-1.44-5.8-3.55-5.8-6.16,0-3.51,2.88-6.39,7.51-6.39a10,10,0,0,1,5.31,1.35l-.94,2.83a9,9,0,0,0-4.46-1.26c-2.34,0-3.6,1.35-3.6,3,0,1.85,1.26,2.66,4.1,3.74,3.73,1.39,5.71,3.28,5.71,6.57,0,3.87-3,6.57-8.1,6.57A12.43,12.43,0,0,1,227,38.13Z"/><path class="cls-1" d="M254.27,39.66c-5.86,0-10.44-4.32-10.44-11.21,0-7.29,4.81-11.56,10.79-11.56,6.26,0,10.49,4.54,10.49,11.16,0,8.1-5.62,11.61-10.8,11.61Zm.13-3c3.78,0,6.62-3.56,6.62-8.51,0-3.69-1.85-8.32-6.53-8.32s-6.66,4.32-6.66,8.46c0,4.77,2.7,8.37,6.53,8.37Z"/><path class="cls-1" d="M269.2,24.18c0-2.57,0-4.77-.17-6.8h3.46l.18,4.28h.13a6.58,6.58,0,0,1,6.08-4.77A4.15,4.15,0,0,1,280,17v3.69c-.45,0-.85-.09-1.39-.09-2.79,0-4.78,2.12-5.32,5a12.56,12.56,0,0,0-.13,1.89V39.16h-4Z"/><path class="cls-1" d="M285.93,17.09a7,7,0,0,1,1.36-.11,2.23,2.23,0,0,1,1.47.38,1.15,1.15,0,0,1,.42,1,1.25,1.25,0,0,1-.8,1.15v0a1.17,1.17,0,0,1,.61.87c.14.53.27,1.14.36,1.32H288.3A7,7,0,0,1,288,20.6c-.13-.59-.32-.74-.74-.75h-.31v1.84h-1Zm1,2h.41c.51,0,.81-.26.81-.67s-.28-.65-.75-.65a2,2,0,0,0-.47,0Z"/><path class="cls-1" d="M283,19.52a4.64,4.64,0,1,0,4.64-4.64A4.64,4.64,0,0,0,283,19.52Zm1,0a3.64,3.64,0,1,1,3.64,3.64A3.64,3.64,0,0,1,284,19.52Z"/></g></g></svg>